<?xml version="1.0" encoding="iso-8859-1"?>
<!-- Generator: Adobe Illustrator 19.0.0, SVG Export Plug-In . SVG Version: 6.00 Build 0)  -->
<svg xmlns="http://www.w3.org/2000/svg" xmlns:xlink="http://www.w3.org/1999/xlink" version="1.1" id="Layer_1" x="0px" y="0px" viewBox="0 0 489.844 489.844" style="enable-background:new 0 0 489.844 489.844;" xml:space="preserve" width="512px" height="512px">
<g>
	<g>
		<path d="M336.172,194.043c-30.2-11.5-48.3-23.4-48.3-23.4l-23.3,73.6l-3.2,10l-10.4-29.6c24-33.4-1.8-35-6.3-35.1h-0.1    c0,0,0,0-0.1,0h-0.1h-0.1c-4.5,0-30.2,1.6-6.3,35.1l-10.4,29.6l-3.2-10l-23.3-73.6c0,0-18.1,11.8-48.3,23.4    c-29.9,10.9-31.1,34.2-31.6,76.4c-0.1,8,6.4,14.5,14.3,14.5h102.8h6.4h108.9c8,0,14.4-6.5,14.3-14.5    C367.472,228.343,366.172,204.943,336.172,194.043z" fill="#FFFFFF"/>
	</g>
</g>
<g>
	<g>
		<path d="M301.472,82.543c1-2.7,1.7-5.5,2.2-8.2c8.6-51.5-16.8-53.3-16.8-53.3s-4.2-8.1-15.3-14.2c-7.4-4.4-17.8-7.8-31.4-6.6    c-4.4,0.2-8.6,1.1-12.5,2.4c-5,1.7-9.6,4.2-13.8,7c-5.1,3.2-9.9,7.2-14.2,11.7c-6.7,6.9-12.7,15.7-15.3,26.8    c-2.2,8.3-1.7,16.9,0.1,26.2c0.5,2.7,1.2,5.4,2.2,8.2c-4.9-0.3-10.9,2.6-5.3,22.5c4.1,14.5,7.9,18.6,10.8,18.9    c2.7,17.3,16,39.3,38,47c9,3.2,18.9,3.2,27.8-0.1c21.6-7.8,35.4-29.7,38.1-47c2.9-0.2,6.7-4.3,10.8-18.9    C312.472,85.043,306.572,82.143,301.472,82.543z" fill="#FFFFFF"/>
	</g>
</g>
<g>
	<g>
		<path d="M408.272,403.143v-33.7c0-12.3-10-22.3-22.3-22.3h-128.9v-35h-25.3v35h-128.2c-12.3,0-22.3,10-22.3,22.3v33.8    c-18.5,5.3-32,22.3-32,42.5c-0.1,24.2,19.7,44,44.1,44s44.2-19.8,44.2-44.2c0-19.8-13.1-36.6-31-42.2v-31h125.2v31    c-18.1,5.6-31.2,22.4-31.2,42.2c0,24.4,19.8,44.2,44.2,44.2c24.4,0,44.1-19.8,44.1-44.2c0-20.1-13.5-37.1-31.9-42.4v-30.8h125.9    v31.2c-17.8,5.7-30.7,22.4-30.7,42.1c0,24.4,19.8,44.2,44.2,44.2s44.2-19.8,44.2-44.2    C440.572,425.344,426.872,408.344,408.272,403.143z" fill="#FFFFFF"/>
	</g>
</g>
<g>
</g>
<g>
</g>
<g>
</g>
<g>
</g>
<g>
</g>
<g>
</g>
<g>
</g>
<g>
</g>
<g>
</g>
<g>
</g>
<g>
</g>
<g>
</g>
<g>
</g>
<g>
</g>
<g>
</g>
</svg>
